<svg version="1.1" id="Lager_1" xmlns="http://www.w3.org/2000/svg" xmlns:xlink="http://www.w3.org/1999/xlink" x="0px" y="0px"
	 viewBox="0 0 523.333 249.333" style="enable-background:new 0 0 523.333 249.333;" xml:space="preserve">
<circle id="XMLID_1_" style="fill:#FFFFFF;stroke:#000000;stroke-width:11;stroke-miterlimit:10;" cx="261.416" cy="116.103" r="86.196"/>
<circle id="XMLID_2_" style="fill:#FFFFFF;stroke:#000000;stroke-width:11;stroke-miterlimit:10;" cx="295.466" cy="186.42" r="33.247"/>
<rect id="XMLID_40_" x="26" y="88.572" style="fill:#FFFFFF;" width="472.667" height="55.063"/>
<g id="XMLID_81_">
	<path id="XMLID_82_" d="M48.379,98.557v26.104h23.584v9.082H37.657V98.557H48.379z"/>
	<path id="XMLID_84_" d="M80.793,98.557h10.723v19.951c-0.02,0.898-0.01,1.553,0.029,1.963c0.039,2.695,1.729,4.15,5.068,4.365
		c2.09,0.157,4.16,0.234,6.211,0.234c3.32-0.019,5.654-0.107,7.002-0.264c2.93-0.371,4.463-1.816,4.6-4.336
		c0.039-0.742,0.068-1.641,0.088-2.695V98.557h10.723v23.057l-0.146,1.641c-0.274,3.164-1.094,5.522-2.461,7.075
		c-1.367,1.553-3.555,2.642-6.563,3.267c-0.762,0.176-1.289,0.273-1.582,0.293c-1.641,0.176-5.918,0.264-12.832,0.264l-7.559-0.117
		c-6.152-0.078-9.961-1.846-11.426-5.303c-1.055-2.324-1.651-4.97-1.787-7.939l-0.088-2.842V98.557z"/>
	<path id="XMLID_86_" d="M153.403,98.557l20.273,26.25v-26.25h10.723v35.186h-17.051l-20.273-26.309v26.309h-10.723V98.557H153.403z
		"/>
	<path id="XMLID_88_" d="M212.125,98.557h13.623l19.424,35.186h-12.158l-3.281-6.035h-21.709l-3.164,6.035h-12.158L212.125,98.557z
		 M212.301,119.504h13.066l-6.387-12.012L212.301,119.504z"/>
	<path id="XMLID_91_" d="M284.852,98.557c1.465,0,2.92,0.078,4.365,0.234c3.281,0.333,5.518,1.523,6.709,3.574
		c0.488,0.84,0.82,1.66,0.996,2.461c0.352,1.68,0.537,3.428,0.557,5.244c0,2.911-0.396,5.093-1.187,6.548
		c-0.791,1.455-2.642,2.612-5.552,3.472c2.969,0.82,4.805,1.821,5.508,3.003c0.703,1.182,1.055,3.296,1.055,6.343v4.307H286.58
		l-0.088-3.252c0-2.227-0.264-3.672-0.791-4.336c-0.586-0.781-1.973-1.162-4.16-1.143H264.52v8.73h-10.723V98.557H284.852z
		 M264.52,107.639v8.291h15c1.055,0.02,2.188,0,3.398-0.059c0.898-0.019,1.641-0.156,2.227-0.41
		c1.055-0.488,1.592-1.758,1.611-3.809c0.02-1.425-0.352-2.471-1.113-3.135c-0.547-0.508-1.631-0.771-3.252-0.791l-3.135-0.088
		H264.52z"/>
</g>
<g id="XMLID_71_">
	<path id="XMLID_72_" d="M333.654,121.819c0.019,1.895,0.498,3.086,1.436,3.574c0.604,0.313,1.952,0.508,4.043,0.586l3.047,0.088
		h7.852h2.842c2.227-0.059,3.311-0.977,3.252-2.754c-0.04-1.563-0.781-2.451-2.227-2.666c-0.392-0.039-1.113-0.088-2.168-0.146
		l-2.168-0.088l-6.445-0.264l-3.135-0.176l-5.391-0.293c-1.953-0.078-3.614-0.234-4.98-0.469c-3.047-0.508-4.912-2.021-5.596-4.541
		c-0.43-1.425-0.635-2.949-0.615-4.57c0-2.969,0.273-5.127,0.82-6.475c0.918-2.246,2.427-3.725,4.526-4.438
		c2.099-0.713,6.46-1.059,13.081-1.04c3.555,0.02,6.924,0.098,10.107,0.234c4.629,0.176,7.929,0.762,9.902,1.758
		c2.441,1.211,3.75,3.75,3.926,7.617v2.373H355.04l-0.176-1.289c-0.234-1.191-0.85-1.943-1.846-2.256
		c-0.43-0.136-1.446-0.234-3.047-0.293l-2.9-0.117h-6.27l-2.783,0.088c-0.802,0.04-1.505,0.146-2.109,0.322
		c-1.172,0.274-1.769,1.084-1.787,2.432c-0.04,1.387,0.684,2.256,2.168,2.607c0.742,0.157,1.533,0.245,2.373,0.264l2.783,0.059
		l9.873,0.322l5.742,0.234c1.641,0.098,3.153,0.371,4.541,0.82c3.496,1.172,5.244,4.541,5.244,10.107
		c-0.04,6.192-2.871,9.639-8.496,10.342c-0.919,0.136-1.944,0.215-3.076,0.234c-2.344,0.117-4.717,0.166-7.119,0.146
		c-2.598-0.02-6.465-0.107-11.602-0.264c-1.523-0.04-2.853-0.107-3.984-0.205c-3.125-0.215-5.489-1.015-7.09-2.402
		c-1.426-1.25-2.237-3.584-2.432-7.002l-0.117-2.461H333.654z"/>
	<path id="XMLID_74_" d="M390.706,134.065c-1.719,0.019-3.233-0.02-4.541-0.117c-3.34-0.157-5.889-1.182-7.646-3.076
		c-0.762-0.781-1.318-1.592-1.67-2.432c-0.957-2.109-1.446-5.918-1.465-11.426l0.059-4.57c0.098-3.086,0.469-5.673,1.113-7.764
		c0.82-2.578,2.617-4.375,5.391-5.391c2.011-0.742,7.236-1.123,15.674-1.143l7.705,0.029c5.488,0.04,9.101,0.362,10.84,0.967
		c3.73,1.309,5.859,4.043,6.387,8.203c0.156,1.27,0.244,2.979,0.264,5.127l0.088,5.801c-0.02,2.383-0.117,4.414-0.293,6.094
		c-0.157,1.367-0.518,2.686-1.084,3.955c-1.66,3.77-4.991,5.703-9.99,5.801c-0.703,0.039-2.52,0.048-5.449,0.029L390.706,134.065z
		 M404.388,125.07c1.738,0.02,3.018-0.039,3.838-0.176c1.445-0.215,2.465-0.903,3.062-2.065c0.596-1.162,0.894-3.716,0.894-7.661
		c-0.04-2.09-0.137-3.525-0.293-4.307c-0.333-1.66-1.212-2.685-2.637-3.076c-1.016-0.273-2.149-0.429-3.398-0.469
		c-1.934-0.039-4.219-0.068-6.855-0.088h-3.867c-1.446,0.02-2.891,0.069-4.336,0.146c-1.758,0.117-3.008,0.723-3.75,1.816
		c-0.645,0.977-0.957,3.809-0.938,8.496c0.019,3.321,0.566,5.41,1.641,6.27c0.78,0.645,2.959,0.977,6.533,0.996L404.388,125.07z"/>
	<path id="XMLID_77_" d="M433.228,98.557h10.723v35.186h-10.723V98.557z"/>
	<path id="XMLID_79_" d="M466.667,98.557v26.104h23.584v9.082h-34.307V98.557H466.667z"/>
</g>
</svg>
